<svg width="1024" height="1024" viewBox="0 0 1024 1024" fill="none" xmlns="http://www.w3.org/2000/svg">
<path d="M422.08 331.2C356.8 404.48 312 509.76 307.84 519.68L192 470.08L321.6 340.48C336.64 325.44 358.4 318.72 379.52 322.88L422.08 331.2ZM485.44 672C485.44 672 605.12 622.4 673.92 553.6C846.72 380.8 817.92 245.76 808.64 215.36C778.24 205.76 643.2 177.28 470.4 350.08C401.6 418.88 352 538.56 352 538.56L485.44 672ZM692.8 601.92C619.52 667.2 514.24 712 504.32 716.16L553.92 832L683.52 702.4C698.56 687.36 705.28 665.6 701.12 644.48L692.8 601.92ZM416 704C416 730.56 405.12 754.56 387.84 771.84C350.08 809.6 192 832 192 832C192 832 214.4 673.92 252.16 636.16C269.44 618.88 293.44 608 320 608C373.12 608 416 650.88 416 704ZM544 416C544 380.8 572.8 352 608 352C643.2 352 672 380.8 672 416C672 451.2 643.2 480 608 480C572.8 480 544 451.2 544 416Z" fill="white"/>
</svg>
